<svg width="2040" height="2040" viewBox="0 0 2040 2040" fill="none" xmlns="http://www.w3.org/2000/svg">
<rect width="2040" height="2040" fill="#F5F5F5"/>
<g clip-path="url(#clip0_0_1)">
<rect width="2040" height="2040" fill="white"/>
<path d="M0 0H2040V2040H0V0Z" fill="#FFCC00"/>
<path fill-rule="evenodd" clip-rule="evenodd" d="M1947.99 1021.13C1947.99 1463.6 1532.46 1822.44 1020 1822.44C507.217 1822.44 91.6854 1463.6 91.6854 1021.13C91.6854 579.225 507.217 220.388 1020 220.388C1532.46 220.388 1947.99 579.225 1947.99 1021.13ZM1874.64 1021.13C1874.64 648.731 1492.18 346.97 1020 346.97C547.82 346.97 165.034 648.731 165.034 1021.13C165.034 1393.53 547.82 1695.86 1020 1695.86C1492.18 1695.86 1874.64 1393.53 1874.64 1021.13ZM902.774 880.986V754.405H1164.73V880.986H1070.43V1288.42H997.079V880.986H902.774ZM1480.72 754.405V1288.42H1407.37L1274.43 970.837V1288.42H1201.41V754.405H1274.43L1407.37 1071.99V754.405H1480.72ZM556.989 1288.42V754.405H630.01L711.544 970.272L793.079 754.405H866.099V1288.42H793.079V986.094L737.412 1133.58H685.676L630.01 986.094V1288.42H556.989Z" fill="#020001"/>
</g>
<defs>
<clipPath id="clip0_0_1">
<rect width="2040" height="2040" fill="white"/>
</clipPath>
</defs>
</svg>
