<svg width="2040" height="2040" viewBox="0 0 2040 2040" fill="none" xmlns="http://www.w3.org/2000/svg">
<path d="M2040 0H0V2040H2040V0Z" fill="#FF7900"/>
<path d="M800.169 1842.12C771.386 1860.83 739.725 1870.18 706.624 1870.18C653.376 1870.18 622.434 1834.92 622.434 1787.43C622.434 1724.11 680.72 1690.29 800.889 1676.61V1660.78C800.889 1639.92 785.058 1628.4 756.275 1628.4C727.492 1628.4 703.746 1639.92 687.196 1660.78L636.825 1632C663.45 1595.3 703.746 1576.59 757.714 1576.59C831.831 1576.59 873.566 1608.97 873.566 1660.78C873.566 1660.78 873.566 1865.86 873.566 1866.58H807.365L800.169 1842.12ZM695.111 1782.39C695.111 1801.1 707.344 1819.09 728.931 1819.09C752.677 1819.09 774.984 1809.02 798.011 1788.87V1721.95C728.212 1731.3 695.111 1748.57 695.111 1782.39Z" fill="white"/>
<path d="M931.852 1590.98L993.736 1582.35L1000.21 1616.17C1035.47 1590.98 1062.81 1577.31 1098.07 1577.31C1156.36 1577.31 1186.58 1608.25 1186.58 1669.42V1867.3H1111.75V1682.37C1111.75 1647.83 1102.39 1632 1075.77 1632C1053.46 1632 1031.15 1642.07 1005.97 1663.66V1867.3H931.852V1590.98Z" fill="white"/>
<path d="M1681.65 1872.34C1598.18 1872.34 1547.81 1818.37 1547.81 1724.83C1547.81 1630.56 1598.18 1576.59 1680.21 1576.59C1762.24 1576.59 1811.17 1628.4 1811.17 1721.23C1811.17 1726.26 1810.46 1731.3 1810.46 1735.62H1621.21C1621.93 1789.59 1644.23 1816.21 1688.13 1816.21C1716.19 1816.21 1734.9 1804.7 1752.17 1779.51L1806.86 1809.74C1783.11 1850.75 1739.94 1872.34 1681.65 1872.34ZM1737.78 1687.41C1737.78 1649.27 1716.19 1626.96 1680.93 1626.96C1647.11 1626.96 1626.24 1648.55 1623.37 1687.41H1737.78Z" fill="white"/>
<path d="M251.132 1875.22C177.016 1875.22 110.815 1828.44 110.815 1725.55C110.815 1622.65 177.735 1575.87 251.132 1575.87C325.249 1575.87 391.45 1622.65 391.45 1725.55C391.45 1828.44 325.249 1875.22 251.132 1875.22ZM251.132 1638.48C195.725 1638.48 184.931 1688.85 184.931 1724.83C184.931 1761.52 195.005 1811.17 251.132 1811.17C307.259 1811.17 317.333 1760.8 317.333 1724.83C317.333 1688.85 306.54 1638.48 251.132 1638.48Z" fill="white"/>
<path d="M442.54 1583.07H513.778V1616.17C527.45 1598.18 560.55 1576.59 592.212 1576.59C595.09 1576.59 598.688 1576.59 601.566 1577.31V1647.11C600.127 1647.11 599.407 1647.11 597.968 1647.11C565.587 1647.11 529.608 1652.15 518.815 1677.33V1865.86H442.54V1583.07Z" fill="white"/>
<path d="M1369.35 1806.14C1426.2 1805.42 1430.52 1747.85 1430.52 1710.43C1430.52 1665.82 1408.93 1629.84 1368.63 1629.84C1342.01 1629.84 1311.79 1649.27 1311.79 1713.31C1312.51 1748.57 1314.67 1806.14 1369.35 1806.14ZM1503.2 1582.35V1851.47C1503.2 1898.96 1499.6 1976.68 1364.32 1978.12C1308.19 1978.12 1257.1 1955.81 1246.31 1907.6L1319.7 1896.08C1322.58 1909.76 1331.22 1924.15 1372.95 1924.15C1411.81 1924.15 1430.52 1905.44 1430.52 1861.55V1828.44L1429.8 1827.73C1418.29 1848.59 1399.58 1868.74 1356.4 1868.74C1290.2 1868.74 1238.39 1822.69 1238.39 1726.98C1238.39 1632 1292.36 1578.75 1352.8 1578.75C1409.65 1578.75 1430.52 1604.66 1435.56 1618.33H1434.84L1441.31 1584.51H1503.2V1582.35Z" fill="white"/>
<path d="M1839.96 1488.08H1810.46V1569.4H1794.62V1488.08H1765.12V1475.85H1839.24V1488.08H1839.96ZM1962.29 1569.4H1946.46V1490.96H1945.74L1914.79 1569.4H1904.72L1873.78 1490.96H1873.06V1569.4H1857.23V1475.85H1880.97L1909.04 1547.09L1936.38 1475.85H1960.13V1569.4H1962.29Z" fill="white"/>
</svg>
